<svg xmlns="http://www.w3.org/2000/svg" viewBox="0 0 160 160" fill="none">
  <title>House of Yogis logo</title>
  <desc>Minimal house-shaped yoga school emblem with meditating figure and saffron flag.</desc>
  <g stroke="#2E3B2F" strokeLinecap="round" strokeLinejoin="round">
    <path d="M28 70 80 28l33 27" strokeWidth="5"/>
    <path d="M44 64v50h72V58" strokeWidth="4"/>
    <path d="M116 38v25" strokeWidth="4"/>
    <path d="M116 38h16l-5 5 5 5h-16" fill="#D7844D" stroke="#D7844D" strokeWidth="2.5"/>
    <path d="M60 114c2-19 11-30 20-30s18 11 20 30" strokeWidth="3.5"/>
    <circle cx="80" cy="72" r="8" strokeWidth="3.5"/>
    <path d="M70 90c3 3 6 4 10 4s7-1 10-4" strokeWidth="3"/>
    <path d="M62 106c5-1 10-4 18-4s13 3 18 4" strokeWidth="3"/>
    <path d="M69 111c3 2 6 3 11 3s8-1 11-3" strokeWidth="3"/>
  </g>
</svg>
